<svg id="svg" xmlns="http://www.w3.org/2000/svg" xmlns:xlink="http://www.w3.org/1999/xlink" width="400" height="400" viewBox="0, 0, 400,400" version="1.1"><g id="svgg"><path id="path0" d="M188.948 25.684 C 188.841 25.858,187.278 26.004,185.476 26.008 C 183.674 26.012,180.940 26.210,179.400 26.448 C 177.860 26.685,175.745 26.892,174.700 26.907 C 173.655 26.921,172.800 27.056,172.800 27.206 C 172.800 27.355,171.495 27.678,169.900 27.922 C 168.305 28.166,166.640 28.446,166.200 28.544 C 165.760 28.642,164.410 28.852,163.200 29.010 C 161.990 29.169,160.773 29.480,160.496 29.702 C 160.218 29.924,158.508 30.428,156.696 30.821 C 154.883 31.215,152.410 31.840,151.200 32.210 C 149.990 32.580,148.685 32.876,148.300 32.866 C 147.915 32.857,147.600 32.996,147.600 33.174 C 147.600 33.352,146.880 33.613,146.000 33.754 C 145.120 33.894,144.400 34.207,144.400 34.448 C 144.400 34.688,144.136 34.784,143.813 34.660 C 143.490 34.536,143.119 34.607,142.989 34.817 C 142.859 35.028,142.353 35.200,141.865 35.200 C 141.377 35.200,140.623 35.444,140.189 35.743 C 139.755 36.042,138.680 36.504,137.800 36.771 C 136.920 37.038,135.840 37.410,135.400 37.598 C 134.960 37.786,133.070 38.601,131.200 39.409 C 129.330 40.218,127.395 40.972,126.900 41.086 C 126.405 41.200,126.000 41.452,126.000 41.647 C 126.000 41.841,125.865 41.966,125.700 41.925 C 125.283 41.822,119.829 44.465,119.674 44.845 C 119.605 45.016,119.313 45.065,119.026 44.955 C 118.738 44.844,118.396 45.034,118.264 45.377 C 118.133 45.720,117.749 46.000,117.413 46.000 C 117.076 46.000,116.800 46.180,116.800 46.400 C 116.800 46.620,116.665 46.758,116.500 46.707 C 116.335 46.655,114.530 47.600,112.488 48.807 C 110.447 50.013,108.287 51.253,107.688 51.562 C 107.090 51.871,106.510 52.251,106.400 52.408 C 106.290 52.564,105.795 52.819,105.300 52.973 C 104.805 53.128,104.400 53.417,104.400 53.617 C 104.400 53.971,102.125 55.322,101.889 55.108 C 101.824 55.049,101.147 55.585,100.385 56.301 C 99.623 57.017,98.680 57.705,98.289 57.831 C 97.898 57.958,96.908 58.676,96.089 59.429 C 95.270 60.181,94.456 60.797,94.281 60.798 C 94.105 60.799,93.520 61.276,92.981 61.858 C 92.441 62.441,92.000 62.807,92.000 62.673 C 92.000 62.423,91.084 63.195,88.643 65.500 C 87.886 66.215,87.148 66.800,87.003 66.800 C 86.857 66.800,86.236 67.295,85.621 67.900 C 83.742 69.750,82.478 70.745,82.271 70.537 C 82.162 70.429,81.954 70.713,81.810 71.170 C 81.665 71.626,81.396 72.000,81.213 72.000 C 80.732 72.000,74.000 78.757,74.000 79.241 C 74.000 79.464,73.840 79.548,73.644 79.427 C 73.448 79.306,73.017 79.610,72.686 80.103 C 71.608 81.711,69.536 83.803,69.134 83.690 C 68.918 83.630,68.840 83.741,68.961 83.937 C 69.082 84.133,68.344 85.172,67.322 86.246 C 66.299 87.321,65.087 88.746,64.628 89.413 C 63.740 90.704,63.377 91.162,61.876 92.889 C 61.355 93.488,60.584 94.447,60.164 95.020 C 59.744 95.593,58.995 96.507,58.500 97.051 C 58.005 97.596,57.600 98.287,57.600 98.587 C 57.600 98.887,57.060 99.642,56.400 100.265 C 55.740 100.888,55.200 101.596,55.200 101.839 C 55.200 102.081,54.660 103.025,54.000 103.937 C 53.340 104.848,52.800 105.697,52.800 105.825 C 52.800 105.953,52.575 106.308,52.300 106.615 C 51.013 108.050,50.735 108.468,50.936 108.669 C 51.055 108.788,50.848 109.214,50.476 109.616 C 50.104 110.017,49.442 111.033,49.004 111.873 C 48.566 112.713,48.107 113.490,47.984 113.600 C 47.862 113.710,47.140 115.060,46.381 116.600 C 45.621 118.140,44.865 119.460,44.700 119.533 C 44.535 119.607,44.398 119.877,44.395 120.133 C 44.386 120.936,42.096 125.163,41.820 124.887 C 41.676 124.742,41.670 124.916,41.806 125.272 C 41.943 125.628,41.862 126.038,41.627 126.183 C 41.392 126.328,41.200 126.797,41.200 127.224 C 41.200 127.651,41.009 128.000,40.776 128.000 C 40.543 128.000,40.464 128.180,40.600 128.400 C 40.736 128.620,40.693 128.800,40.504 128.800 C 40.181 128.800,39.159 131.137,38.950 132.352 C 38.898 132.656,38.663 133.097,38.428 133.332 C 38.192 133.568,38.000 134.084,38.000 134.480 C 38.000 134.876,37.859 135.200,37.687 135.200 C 37.515 135.200,37.129 136.055,36.829 137.100 C 36.529 138.145,36.156 139.180,36.000 139.400 C 35.843 139.620,35.500 140.684,35.236 141.763 C 34.972 142.843,34.496 144.098,34.178 144.552 C 33.860 145.006,33.600 145.788,33.600 146.289 C 33.600 146.790,33.420 147.200,33.200 147.200 C 32.980 147.200,32.800 147.674,32.800 148.254 C 32.800 149.470,32.021 152.386,31.516 153.058 C 29.595 155.614,31.088 161.122,33.545 160.545 C 34.125 160.409,34.778 160.276,34.994 160.249 C 35.211 160.222,36.267 159.615,37.339 158.900 C 38.412 158.185,39.460 157.600,39.668 157.600 C 39.877 157.600,39.939 157.425,39.807 157.212 C 39.675 156.998,40.025 156.709,40.584 156.568 C 41.143 156.428,41.600 156.147,41.600 155.944 C 41.600 155.741,41.915 155.455,42.300 155.308 C 43.054 155.020,43.099 154.987,45.200 153.202 C 45.970 152.548,46.722 152.010,46.871 152.006 C 47.021 152.003,47.381 151.772,47.671 151.494 C 47.962 151.216,49.550 150.091,51.200 148.994 C 52.850 147.897,54.260 146.864,54.334 146.698 C 54.408 146.531,54.633 146.497,54.834 146.621 C 55.035 146.745,55.200 146.681,55.200 146.478 C 55.200 146.275,55.965 145.590,56.900 144.956 C 57.835 144.321,58.690 143.712,58.800 143.601 C 58.910 143.491,59.299 143.220,59.664 143.000 C 60.030 142.780,61.425 141.834,62.764 140.897 C 64.104 139.960,65.200 139.285,65.200 139.397 C 65.200 139.509,65.539 139.285,65.953 138.900 C 67.858 137.128,69.411 136.026,71.334 135.085 C 72.480 134.524,73.756 133.690,74.171 133.232 C 74.585 132.775,75.139 132.400,75.401 132.400 C 75.663 132.400,76.310 132.021,76.839 131.558 C 77.367 131.094,78.160 130.547,78.600 130.341 C 79.742 129.806,80.936 129.079,81.615 128.506 C 83.430 126.974,84.751 126.000,85.014 126.000 C 85.178 126.000,85.519 125.717,85.772 125.371 C 86.335 124.601,87.946 124.917,89.144 126.033 C 89.596 126.455,90.154 126.800,90.383 126.800 C 90.612 126.800,90.800 127.070,90.800 127.400 C 90.800 127.730,91.025 128.001,91.300 128.003 C 91.575 128.005,92.712 128.860,93.827 129.903 C 94.942 130.946,96.549 132.340,97.399 133.000 C 98.248 133.660,99.271 134.515,99.672 134.900 C 100.072 135.285,100.514 135.600,100.654 135.600 C 100.794 135.600,101.334 136.059,101.854 136.621 C 102.374 137.182,102.800 137.542,102.800 137.421 C 102.800 137.299,103.137 137.515,103.548 137.900 C 105.843 140.048,106.769 140.800,107.119 140.800 C 107.334 140.800,107.935 141.338,108.455 141.996 C 108.975 142.654,109.619 143.194,109.886 143.196 C 110.153 143.198,110.565 143.560,110.800 144.000 C 111.035 144.440,111.447 144.805,111.714 144.811 C 111.981 144.818,113.039 145.583,114.063 146.511 C 115.088 147.440,117.113 149.169,118.563 150.352 C 120.014 151.536,121.200 152.661,121.200 152.852 C 121.200 153.044,121.396 153.200,121.636 153.200 C 122.057 153.200,126.296 156.586,126.894 157.400 C 127.072 157.643,127.190 157.649,127.194 157.415 C 127.197 157.203,128.001 157.878,128.981 158.915 C 129.960 159.952,130.940 160.800,131.158 160.800 C 131.376 160.800,131.791 161.115,132.079 161.500 C 132.727 162.365,135.019 164.000,135.584 164.000 C 135.813 164.000,136.000 164.300,136.000 164.667 C 136.000 165.033,136.118 165.215,136.263 165.071 C 136.407 164.926,137.355 165.571,138.369 166.504 C 139.383 167.437,141.175 169.010,142.352 170.000 C 143.528 170.990,144.727 172.025,145.017 172.300 C 145.306 172.575,145.729 172.800,145.957 172.800 C 146.185 172.800,146.544 173.122,146.755 173.516 C 146.966 173.910,147.596 174.477,148.155 174.776 C 148.715 175.076,149.078 175.473,148.963 175.660 C 148.847 175.847,148.999 176.000,149.300 176.000 C 149.602 176.000,150.377 176.505,151.024 177.123 C 151.671 177.740,152.830 178.681,153.600 179.214 C 154.370 179.747,155.411 180.590,155.914 181.087 C 156.417 181.585,157.272 182.103,157.814 182.239 C 158.356 182.375,158.800 182.636,158.800 182.819 C 158.800 183.001,159.148 183.124,159.572 183.092 C 159.997 183.060,160.262 182.900,160.161 182.737 C 160.060 182.574,160.341 182.246,160.785 182.008 C 161.229 181.771,161.873 181.032,162.217 180.367 C 162.561 179.702,163.508 178.479,164.321 177.650 C 166.748 175.175,174.332 167.155,178.400 162.763 C 180.490 160.507,183.870 156.982,185.912 154.930 C 187.953 152.879,189.506 151.200,189.363 151.200 C 189.219 151.200,189.324 150.932,189.596 150.604 C 189.868 150.277,190.224 150.091,190.387 150.192 C 190.550 150.293,190.885 149.931,191.133 149.387 C 191.380 148.844,191.777 148.400,192.015 148.400 C 192.253 148.400,192.336 148.220,192.200 148.000 C 192.064 147.780,192.133 147.600,192.354 147.600 C 192.716 147.600,193.558 146.774,197.012 143.031 C 197.949 142.015,198.138 141.946,198.454 142.511 C 198.654 142.868,199.084 143.427,199.409 143.752 C 199.734 144.077,200.000 144.541,200.000 144.784 C 200.000 145.027,200.270 145.329,200.600 145.455 C 200.930 145.582,201.200 145.861,201.200 146.075 C 201.200 146.508,203.820 149.916,204.756 150.700 C 205.084 150.975,205.230 151.200,205.080 151.200 C 204.824 151.200,205.584 152.240,206.700 153.416 C 206.975 153.706,207.200 154.134,207.200 154.368 C 207.200 154.602,207.560 155.018,208.000 155.293 C 208.440 155.568,208.803 155.974,208.807 156.196 C 208.811 156.418,209.260 157.023,209.805 157.541 C 210.351 158.058,210.697 158.643,210.575 158.841 C 210.453 159.038,210.512 159.200,210.706 159.200 C 210.901 159.200,212.082 160.628,213.332 162.373 C 214.582 164.119,215.873 165.816,216.202 166.145 C 216.531 166.474,216.800 166.936,216.800 167.171 C 216.800 167.407,216.950 167.600,217.132 167.600 C 217.315 167.600,217.720 168.080,218.032 168.667 C 218.345 169.253,219.050 170.211,219.600 170.795 C 220.484 171.734,223.093 175.333,224.200 177.141 C 224.420 177.500,225.005 178.192,225.500 178.678 C 225.995 179.164,226.400 179.724,226.400 179.922 C 226.400 180.121,226.850 180.769,227.400 181.362 C 227.950 181.956,228.400 182.593,228.400 182.778 C 228.400 182.963,228.670 183.218,229.000 183.345 C 229.330 183.471,229.600 183.851,229.600 184.187 C 229.600 184.524,229.759 184.800,229.953 184.800 C 230.148 184.800,230.406 185.178,230.526 185.640 C 230.647 186.103,230.938 186.362,231.173 186.217 C 231.408 186.072,231.600 186.233,231.600 186.576 C 231.600 186.919,231.777 187.200,231.992 187.200 C 232.208 187.200,232.494 187.637,232.628 188.171 C 232.763 188.705,233.126 189.239,233.436 189.359 C 233.746 189.478,234.000 189.842,234.000 190.168 C 234.000 190.494,234.230 190.904,234.511 191.080 C 235.257 191.547,237.600 194.640,237.600 195.158 C 237.600 195.401,237.750 195.600,237.933 195.600 C 238.418 195.600,240.861 198.736,240.974 199.504 C 241.027 199.863,241.279 200.226,241.535 200.312 C 241.791 200.397,242.000 200.678,242.000 200.937 C 242.000 201.196,242.349 201.626,242.777 201.893 C 243.204 202.159,244.055 203.234,244.668 204.281 C 245.282 205.327,246.063 206.463,246.404 206.804 C 246.745 207.145,247.634 208.273,248.380 209.312 C 249.125 210.350,249.896 211.200,250.091 211.200 C 250.287 211.200,250.336 211.380,250.200 211.600 C 250.064 211.820,250.113 212.000,250.309 212.000 C 250.505 212.000,250.920 212.484,251.232 213.075 C 251.545 213.667,252.160 214.537,252.600 215.009 C 253.904 216.408,255.804 218.987,255.661 219.164 C 255.588 219.254,255.814 219.488,256.164 219.684 C 256.514 219.880,256.800 220.301,256.800 220.620 C 256.800 220.939,256.980 221.200,257.200 221.200 C 257.420 221.200,257.600 221.500,257.600 221.867 C 257.600 222.233,257.725 222.408,257.878 222.256 C 258.031 222.103,258.922 223.168,259.858 224.624 C 260.794 226.079,262.019 227.729,262.580 228.289 C 263.141 228.850,263.600 229.477,263.600 229.683 C 263.600 229.889,263.825 230.310,264.100 230.619 C 264.375 230.927,264.911 231.589,265.292 232.090 C 265.673 232.590,266.909 234.170,268.039 235.600 C 269.168 237.030,270.799 239.235,271.661 240.500 C 272.524 241.765,273.403 242.800,273.615 242.800 C 273.827 242.800,274.000 242.992,274.000 243.227 C 274.000 243.692,276.014 246.518,276.500 246.733 C 276.665 246.807,276.800 247.016,276.800 247.199 C 276.800 247.530,277.382 248.279,279.933 251.229 C 280.667 252.077,281.302 253.012,281.345 253.308 C 281.429 253.875,282.134 254.817,283.300 255.917 C 283.685 256.280,284.000 256.726,284.000 256.906 C 284.000 257.087,284.450 257.720,285.000 258.313 C 285.550 258.907,286.000 259.575,286.000 259.800 C 286.000 260.024,286.360 260.432,286.800 260.707 C 287.240 260.982,287.600 261.374,287.600 261.579 C 287.600 261.783,288.118 262.518,288.752 263.212 C 289.386 263.906,290.150 264.952,290.451 265.537 C 290.752 266.121,291.148 266.709,291.331 266.843 C 291.636 267.067,292.577 268.329,296.067 273.200 C 296.842 274.282,297.046 274.761,296.580 274.400 C 295.206 273.338,294.833 272.901,295.086 272.648 C 295.222 272.511,295.139 272.400,294.901 272.400 C 294.663 272.400,293.823 271.773,293.034 271.007 C 292.245 270.241,291.600 269.691,291.600 269.785 C 291.600 269.878,290.700 269.092,289.600 268.037 C 288.500 266.983,287.600 266.015,287.600 265.887 C 287.600 265.660,281.203 259.340,279.200 257.588 C 278.650 257.107,278.245 256.553,278.300 256.356 C 278.355 256.160,278.218 256.000,277.996 256.000 C 277.773 256.000,276.114 254.470,274.307 252.600 C 272.501 250.730,270.911 249.200,270.774 249.200 C 270.348 249.200,264.114 242.820,264.329 242.604 C 264.441 242.492,264.334 242.400,264.090 242.400 C 263.846 242.400,259.745 238.530,254.977 233.800 C 250.209 229.070,246.148 225.200,245.954 225.200 C 245.759 225.200,245.600 224.930,245.600 224.600 C 245.600 224.270,245.409 224.000,245.174 224.000 C 244.940 224.000,242.717 221.975,240.234 219.500 C 237.751 217.025,235.287 214.618,234.759 214.151 C 234.232 213.685,232.972 212.416,231.960 211.331 C 230.948 210.247,229.913 209.429,229.660 209.513 C 229.407 209.598,229.200 209.515,229.200 209.330 C 229.200 208.269,227.501 207.954,226.558 208.840 C 226.031 209.335,225.600 209.603,225.600 209.436 C 225.600 209.269,225.195 209.616,224.700 210.206 C 224.205 210.797,223.485 211.573,223.100 211.929 C 222.715 212.286,222.400 212.808,222.400 213.089 C 222.400 213.370,222.130 213.600,221.800 213.600 C 221.470 213.600,221.245 213.810,221.300 214.067 C 221.355 214.324,220.950 214.772,220.400 215.061 C 219.850 215.351,219.580 215.597,219.800 215.607 C 220.020 215.618,219.775 215.981,219.256 216.413 C 218.736 216.846,218.411 217.200,218.532 217.200 C 218.797 217.200,216.072 220.292,213.700 222.682 C 212.765 223.624,211.997 224.531,211.993 224.698 C 211.989 224.864,211.539 225.424,210.993 225.942 C 210.447 226.460,209.999 227.090,209.997 227.342 C 209.995 227.594,209.140 228.722,208.097 229.850 C 207.054 230.977,205.750 232.464,205.200 233.153 C 204.650 233.842,203.570 235.106,202.800 235.962 C 202.030 236.818,200.860 238.123,200.200 238.862 C 199.540 239.600,198.550 240.877,198.000 241.700 C 197.450 242.522,196.865 243.196,196.700 243.197 C 196.535 243.199,196.400 243.451,196.400 243.757 C 196.400 244.064,196.130 244.418,195.800 244.545 C 195.470 244.671,195.200 245.042,195.200 245.368 C 195.200 245.694,194.974 246.104,194.698 246.280 C 194.421 246.456,193.663 247.320,193.012 248.200 C 192.361 249.080,191.597 250.038,191.314 250.329 C 191.032 250.619,190.800 251.016,190.800 251.210 C 190.800 251.405,190.395 251.977,189.899 252.482 C 189.404 252.987,188.258 254.339,187.352 255.486 C 186.446 256.633,185.592 257.458,185.453 257.319 C 185.314 257.180,185.200 257.270,185.200 257.519 C 185.200 258.589,183.758 258.769,182.741 257.826 C 182.191 257.316,181.347 256.774,180.865 256.621 C 180.383 256.468,180.092 256.175,180.218 255.971 C 180.344 255.767,180.212 255.597,179.924 255.593 C 179.636 255.589,178.976 255.139,178.458 254.593 C 177.940 254.047,177.349 253.600,177.145 253.600 C 176.940 253.600,176.239 253.054,175.587 252.386 C 174.934 251.719,174.400 251.276,174.400 251.402 C 174.400 251.663,174.407 251.669,170.541 248.410 C 168.969 247.084,167.527 246.000,167.337 246.000 C 167.147 246.000,166.499 245.543,165.896 244.984 C 165.293 244.425,164.800 244.051,164.800 244.153 C 164.800 244.255,164.287 243.857,163.659 243.269 C 163.032 242.681,161.234 241.225,159.663 240.033 C 158.093 238.842,156.454 237.537,156.021 237.133 C 155.588 236.730,155.046 236.400,154.817 236.400 C 154.588 236.400,154.400 236.220,154.400 236.000 C 154.400 235.780,154.222 235.600,154.005 235.600 C 153.787 235.600,153.292 235.345,152.905 235.033 C 152.517 234.721,150.580 233.186,148.600 231.623 C 146.620 230.060,144.640 228.473,144.200 228.098 C 143.760 227.722,143.265 227.456,143.100 227.507 C 142.935 227.558,142.800 227.441,142.800 227.247 C 142.800 227.052,141.225 225.759,139.300 224.372 C 137.375 222.985,135.304 221.345,134.698 220.727 C 134.092 220.109,133.503 219.608,133.388 219.615 C 133.147 219.628,130.563 217.727,129.425 216.700 C 128.998 216.315,128.506 216.000,128.332 216.000 C 128.157 216.000,127.366 215.370,126.573 214.600 C 125.780 213.830,125.038 213.200,124.923 213.200 C 124.809 213.200,124.227 212.795,123.629 212.300 C 123.031 211.805,121.940 210.950,121.203 210.400 C 119.140 208.859,116.733 206.892,115.311 205.585 C 114.602 204.933,113.776 204.400,113.476 204.400 C 113.176 204.400,112.136 203.689,111.165 202.820 C 110.194 201.951,108.989 200.871,108.486 200.420 C 107.983 199.969,107.417 199.600,107.229 199.600 C 107.040 199.600,106.782 199.330,106.655 199.000 C 106.529 198.670,106.190 198.400,105.902 198.400 C 105.614 198.400,104.933 197.905,104.389 197.300 C 103.845 196.695,103.135 196.200,102.812 196.200 C 102.488 196.200,102.022 195.796,101.776 195.302 C 101.530 194.809,101.207 194.526,101.058 194.675 C 100.910 194.824,100.205 194.380,99.492 193.689 C 98.165 192.403,97.556 192.420,97.061 193.757 C 96.907 194.174,96.667 194.400,96.526 194.260 C 96.386 194.120,96.020 194.364,95.713 194.803 C 95.406 195.241,95.001 195.600,94.814 195.600 C 94.627 195.600,93.602 196.415,92.537 197.411 C 88.826 200.880,87.778 201.808,86.226 203.000 C 85.367 203.660,84.385 204.515,84.043 204.900 C 83.702 205.285,83.293 205.600,83.135 205.600 C 82.976 205.600,82.038 206.365,81.050 207.300 C 78.319 209.884,75.720 212.084,75.340 212.133 C 75.153 212.158,74.370 212.936,73.600 213.863 C 72.830 214.790,71.989 215.560,71.731 215.574 C 71.473 215.589,70.556 216.320,69.693 217.200 C 68.831 218.080,68.018 218.800,67.887 218.800 C 67.756 218.800,67.053 219.355,66.325 220.034 C 65.596 220.712,64.190 221.923,63.200 222.725 C 62.210 223.527,60.970 224.592,60.445 225.092 C 59.920 225.591,59.235 226.000,58.922 226.000 C 58.609 226.000,58.457 226.169,58.585 226.375 C 58.712 226.581,58.359 227.076,57.801 227.475 C 57.242 227.874,56.293 228.617,55.693 229.127 C 55.092 229.638,53.790 230.718,52.800 231.527 C 51.810 232.337,50.765 233.315,50.477 233.700 C 50.190 234.085,49.769 234.400,49.542 234.400 C 49.146 234.400,47.512 235.797,44.394 238.800 C 43.595 239.570,42.340 240.650,41.605 241.200 C 40.870 241.750,39.468 242.963,38.489 243.896 C 37.510 244.828,36.550 245.492,36.355 245.372 C 36.160 245.251,36.000 245.329,36.000 245.545 C 36.000 245.760,35.190 246.747,34.200 247.737 C 31.913 250.024,31.864 249.354,34.855 256.874 C 35.265 257.905,35.600 259.210,35.600 259.774 C 35.600 260.338,35.780 260.800,36.000 260.800 C 36.220 260.800,36.400 261.149,36.400 261.576 C 36.400 262.003,36.583 262.466,36.807 262.604 C 37.030 262.742,37.109 263.023,36.983 263.228 C 36.856 263.432,36.954 263.600,37.200 263.600 C 37.446 263.600,37.536 263.780,37.400 264.000 C 37.264 264.220,37.306 264.400,37.493 264.400 C 37.823 264.400,38.988 267.891,38.862 268.500 C 38.828 268.665,38.966 268.800,39.168 268.800 C 39.371 268.800,39.655 269.340,39.800 270.000 C 39.945 270.660,40.229 271.200,40.432 271.200 C 40.634 271.200,40.800 271.437,40.800 271.727 C 40.800 272.017,41.340 273.309,42.000 274.600 C 42.660 275.891,43.200 277.079,43.200 277.240 C 43.200 277.402,43.997 278.882,44.971 280.529 C 45.945 282.177,46.652 283.615,46.541 283.725 C 46.431 283.836,46.759 284.407,47.270 284.995 C 47.782 285.583,48.220 286.185,48.245 286.332 C 48.379 287.125,49.419 289.200,49.682 289.200 C 49.851 289.200,50.258 289.785,50.587 290.500 C 51.397 292.264,52.101 293.337,52.700 293.720 C 52.975 293.896,53.200 294.205,53.200 294.407 C 53.200 294.846,56.425 299.672,56.999 300.094 C 57.220 300.256,57.249 300.391,57.064 300.394 C 56.880 300.397,57.150 300.908,57.664 301.529 C 58.179 302.149,59.050 303.265,59.600 304.008 C 60.150 304.752,60.870 305.649,61.200 306.002 C 61.530 306.356,62.388 307.479,63.107 308.498 C 64.414 310.350,65.871 312.054,69.133 315.545 C 70.086 316.565,71.129 317.901,71.450 318.513 C 71.771 319.125,72.206 319.520,72.417 319.389 C 72.628 319.259,72.800 319.437,72.800 319.785 C 72.800 320.133,73.250 320.622,73.800 320.873 C 74.350 321.123,74.800 321.570,74.800 321.864 C 74.800 322.159,75.070 322.400,75.400 322.400 C 75.730 322.400,76.000 322.649,76.000 322.954 C 76.000 323.259,76.408 323.776,76.907 324.102 C 77.406 324.429,79.071 325.894,80.607 327.356 C 84.797 331.345,85.527 332.000,85.783 332.000 C 85.912 332.000,86.977 332.990,88.149 334.200 C 89.321 335.410,90.587 336.400,90.963 336.400 C 91.339 336.400,91.536 336.580,91.400 336.800 C 91.264 337.020,91.414 337.200,91.734 337.200 C 92.054 337.200,92.893 337.740,93.600 338.400 C 94.307 339.060,95.031 339.600,95.209 339.600 C 95.387 339.600,95.593 339.750,95.667 339.932 C 95.784 340.224,100.928 343.912,102.736 345.000 C 103.101 345.220,104.138 345.975,105.039 346.677 C 105.941 347.380,107.158 348.075,107.745 348.222 C 108.331 348.369,108.943 348.694,109.105 348.945 C 109.267 349.195,109.850 349.659,110.400 349.976 C 112.064 350.934,114.878 352.467,117.136 353.647 C 118.311 354.260,119.526 354.973,119.836 355.230 C 120.146 355.487,120.400 355.600,120.400 355.479 C 120.400 355.359,121.694 355.972,123.276 356.842 C 124.858 357.712,126.568 358.527,127.076 358.655 C 127.584 358.782,128.000 359.042,128.000 359.231 C 128.000 359.420,128.241 359.482,128.536 359.369 C 128.831 359.256,129.303 359.442,129.585 359.782 C 129.867 360.122,130.396 360.400,130.760 360.400 C 131.124 360.400,131.777 360.647,132.211 360.949 C 132.645 361.251,133.627 361.634,134.394 361.801 C 135.161 361.968,136.157 362.346,136.608 362.642 C 137.058 362.937,137.781 363.238,138.213 363.311 C 138.646 363.385,139.585 363.754,140.300 364.132 C 141.015 364.511,141.600 364.735,141.600 364.631 C 141.600 364.526,142.229 364.704,142.998 365.025 C 143.767 365.346,144.532 365.629,144.698 365.652 C 144.864 365.676,145.417 365.854,145.926 366.048 C 146.435 366.242,147.100 366.400,147.402 366.400 C 147.705 366.400,148.066 366.583,148.204 366.807 C 148.342 367.030,148.643 367.097,148.872 366.955 C 149.102 366.814,149.404 366.865,149.545 367.070 C 149.767 367.394,152.608 368.254,154.407 368.541 C 154.741 368.594,155.191 368.744,155.407 368.873 C 155.623 369.003,156.790 369.241,158.000 369.403 C 159.210 369.564,160.290 369.815,160.400 369.959 C 160.656 370.295,165.114 371.303,166.300 371.292 C 166.795 371.288,167.200 371.401,167.200 371.542 C 167.200 371.684,167.785 371.818,168.500 371.840 C 169.215 371.862,171.150 372.115,172.800 372.403 C 174.450 372.691,176.205 372.934,176.700 372.943 C 177.195 372.953,177.600 373.097,177.600 373.264 C 177.600 373.431,178.095 373.546,178.700 373.520 C 179.305 373.493,182.050 373.622,184.800 373.806 C 187.550 373.990,190.205 374.128,190.700 374.112 C 191.195 374.097,191.600 374.201,191.600 374.342 C 191.600 374.484,195.560 374.600,200.400 374.601 C 205.240 374.601,209.200 374.494,209.200 374.362 C 209.200 374.230,211.405 374.010,214.100 373.874 C 216.795 373.738,219.450 373.528,220.000 373.407 C 220.550 373.287,221.792 373.104,222.760 373.001 C 223.728 372.898,224.611 372.722,224.723 372.610 C 224.835 372.498,225.168 372.607,225.463 372.852 C 225.806 373.137,226.000 373.150,226.000 372.888 C 226.000 372.526,230.185 371.749,231.500 371.866 C 231.775 371.891,232.000 371.772,232.000 371.602 C 232.000 371.431,232.945 371.164,234.100 371.007 C 235.255 370.850,236.560 370.643,237.000 370.546 C 237.440 370.449,238.202 370.354,238.693 370.335 C 239.184 370.316,239.501 370.163,239.397 369.996 C 239.294 369.828,240.242 369.563,241.505 369.407 C 242.767 369.251,244.017 368.945,244.282 368.727 C 244.548 368.509,244.940 368.440,245.155 368.572 C 245.369 368.705,245.643 368.654,245.763 368.459 C 245.884 368.264,246.742 367.984,247.671 367.835 C 248.600 367.686,249.593 367.372,249.878 367.135 C 250.163 366.899,250.757 366.800,251.198 366.915 C 251.640 367.031,251.914 366.985,251.808 366.814 C 251.703 366.642,252.233 366.402,252.988 366.280 C 253.742 366.157,254.953 365.800,255.680 365.487 C 259.099 364.010,262.490 362.800,263.208 362.800 C 263.644 362.800,264.000 362.620,264.000 362.400 C 264.000 362.180,264.258 362.000,264.574 362.000 C 264.890 362.000,265.655 361.790,266.274 361.534 C 266.893 361.277,267.490 361.039,267.600 361.005 C 268.431 360.747,270.254 359.741,270.494 359.408 C 270.656 359.184,270.791 359.139,270.794 359.308 C 270.797 359.478,271.565 359.216,272.500 358.726 C 273.435 358.237,274.290 357.818,274.400 357.795 C 275.017 357.669,278.444 355.852,278.629 355.554 C 278.749 355.359,279.197 355.200,279.624 355.200 C 280.051 355.200,280.400 355.056,280.400 354.880 C 280.400 354.705,281.075 354.319,281.900 354.024 C 282.725 353.729,283.490 353.365,283.600 353.216 C 283.710 353.067,284.635 352.546,285.655 352.059 C 286.675 351.571,287.917 350.819,288.416 350.386 C 288.914 349.954,289.615 349.600,289.972 349.600 C 290.330 349.600,290.930 349.240,291.307 348.800 C 291.684 348.360,292.245 348.000,292.553 348.000 C 292.862 348.000,293.218 347.730,293.345 347.400 C 293.471 347.070,293.851 346.800,294.187 346.800 C 294.524 346.800,294.800 346.661,294.800 346.491 C 294.800 346.321,295.475 345.830,296.300 345.399 C 297.125 344.969,298.745 343.932,299.900 343.096 C 301.055 342.259,302.000 341.662,302.000 341.769 C 302.000 341.876,302.419 341.567,302.931 341.082 C 304.624 339.478,306.400 338.068,306.400 338.328 C 306.400 338.468,306.805 338.186,307.300 337.699 C 308.836 336.192,310.505 334.800,310.778 334.800 C 310.921 334.800,311.660 334.176,312.419 333.413 C 313.179 332.650,314.013 332.020,314.273 332.013 C 314.533 332.006,314.860 331.640,315.000 331.200 C 315.140 330.760,315.408 330.400,315.596 330.400 C 315.991 330.400,316.779 329.681,322.401 324.200 C 324.657 322.000,327.403 319.120,328.504 317.800 C 329.605 316.480,330.932 315.133,331.453 314.807 C 331.974 314.481,332.400 313.986,332.400 313.707 C 332.400 313.428,332.580 313.200,332.800 313.200 C 333.020 313.200,333.200 312.973,333.200 312.696 C 333.200 312.419,333.560 311.968,334.000 311.693 C 334.440 311.418,334.800 310.938,334.800 310.626 C 334.800 310.313,335.250 309.704,335.800 309.271 C 336.350 308.839,336.800 308.376,336.800 308.242 C 336.800 307.879,338.398 306.352,338.414 306.700 C 338.421 306.865,338.745 306.330,339.133 305.510 C 339.521 304.691,340.233 303.566,340.716 303.010 C 341.199 302.455,341.461 301.995,341.297 301.988 C 341.134 301.981,341.315 301.792,341.700 301.568 C 342.085 301.344,342.401 300.944,342.402 300.680 C 342.403 300.416,342.898 299.654,343.502 298.988 C 344.998 297.336,346.143 295.672,346.936 293.996 C 347.301 293.223,348.050 292.106,348.600 291.513 C 349.150 290.920,349.600 290.185,349.600 289.879 C 349.600 289.389,349.962 288.850,351.593 286.917 C 351.817 286.651,352.013 286.201,352.029 285.917 C 352.045 285.633,352.403 284.860,352.823 284.200 C 353.244 283.540,353.760 282.612,353.969 282.139 C 354.179 281.665,354.545 281.158,354.782 281.011 C 355.019 280.865,355.109 280.577,354.983 280.372 C 354.856 280.168,354.915 280.000,355.113 280.000 C 355.468 280.000,356.614 276.883,356.473 276.300 C 356.433 276.135,356.551 276.000,356.735 276.000 C 357.097 276.000,359.200 271.926,359.200 271.225 C 359.200 270.991,359.380 270.800,359.600 270.800 C 359.820 270.800,360.000 270.445,360.000 270.012 C 360.000 269.578,360.428 268.273,360.951 267.112 C 362.984 262.594,365.371 256.166,365.263 255.500 C 365.201 255.115,365.360 254.800,365.618 254.800 C 365.875 254.800,365.982 254.530,365.855 254.200 C 365.729 253.870,365.779 253.600,365.967 253.600 C 366.267 253.600,366.425 253.077,366.935 250.400 C 366.998 250.070,367.263 249.407,367.525 248.926 C 367.786 248.446,368.000 247.541,368.000 246.915 C 368.000 246.290,368.312 245.333,368.693 244.789 C 369.074 244.245,369.335 243.754,369.273 243.698 C 369.014 243.462,369.731 238.800,370.027 238.800 C 370.205 238.800,370.349 238.485,370.348 238.100 C 370.345 236.878,370.897 233.815,371.195 233.400 C 371.553 232.902,372.396 227.459,372.934 222.176 C 373.003 221.503,373.168 220.775,373.301 220.560 C 373.543 220.168,374.171 209.546,374.121 206.700 C 374.106 205.875,374.210 205.200,374.352 205.200 C 374.785 205.200,374.637 193.427,374.200 193.106 C 373.959 192.929,374.018 192.810,374.349 192.806 C 374.732 192.802,374.779 192.649,374.502 192.300 C 374.285 192.025,373.984 189.370,373.833 186.400 C 373.478 179.371,373.416 178.673,373.107 178.173 C 372.965 177.943,372.858 177.016,372.871 176.114 C 372.883 175.212,372.776 174.285,372.633 174.054 C 372.490 173.822,372.267 172.501,372.137 171.116 C 372.007 169.732,371.728 168.384,371.517 168.119 C 371.306 167.855,371.246 167.285,371.383 166.853 C 371.520 166.421,371.458 165.959,371.244 165.827 C 371.031 165.695,370.731 164.555,370.579 163.294 C 370.426 162.032,370.164 160.820,369.996 160.600 C 369.745 160.271,369.221 157.945,369.006 156.200 C 368.979 155.980,368.741 155.293,368.478 154.674 C 368.215 154.055,368.000 153.194,368.000 152.761 C 368.000 152.328,367.739 151.350,367.420 150.587 C 367.102 149.824,366.944 149.200,367.069 149.200 C 367.195 149.200,367.112 148.975,366.885 148.700 C 366.658 148.425,366.345 147.525,366.191 146.700 C 366.037 145.875,365.740 145.200,365.530 145.200 C 365.321 145.200,365.202 144.885,365.265 144.500 C 365.328 144.115,365.216 143.538,365.016 143.218 C 364.815 142.898,364.593 142.097,364.520 141.438 C 364.448 140.780,364.237 140.141,364.052 140.020 C 363.866 139.899,363.474 138.855,363.181 137.700 C 362.888 136.545,362.503 135.600,362.324 135.600 C 362.146 135.600,362.000 135.425,362.000 135.212 C 362.000 134.845,360.874 132.210,359.165 128.574 C 358.744 127.679,358.400 126.659,358.400 126.307 C 358.400 125.955,358.265 125.607,358.100 125.533 C 357.935 125.460,356.816 123.420,355.613 121.000 C 354.410 118.580,353.285 116.540,353.113 116.467 C 352.941 116.393,352.800 116.091,352.800 115.795 C 352.800 115.499,352.575 115.013,352.300 114.715 C 352.025 114.416,351.260 113.099,350.600 111.786 C 349.940 110.474,349.253 109.292,349.074 109.160 C 348.894 109.028,348.521 108.488,348.245 107.960 C 347.453 106.448,346.618 105.018,346.400 104.800 C 345.585 103.985,343.600 101.166,343.600 100.823 C 343.600 100.591,343.423 100.400,343.208 100.400 C 342.992 100.400,342.702 99.950,342.564 99.400 C 342.426 98.850,342.153 98.400,341.957 98.400 C 341.760 98.400,341.600 98.130,341.600 97.800 C 341.600 97.470,341.430 97.200,341.223 97.200 C 341.015 97.200,340.419 96.486,339.899 95.613 C 339.379 94.740,338.288 93.308,337.476 92.430 C 336.664 91.553,336.000 90.687,336.000 90.506 C 336.000 90.325,335.640 89.917,335.200 89.600 C 334.760 89.283,334.400 88.902,334.400 88.753 C 334.400 88.361,332.447 86.057,330.633 84.309 C 329.772 83.479,329.214 82.800,329.395 82.800 C 329.575 82.800,329.338 82.467,328.868 82.059 C 328.399 81.652,328.131 81.202,328.274 81.059 C 328.417 80.917,328.310 80.800,328.038 80.800 C 327.395 80.800,326.364 79.769,326.686 79.448 C 326.822 79.311,326.751 79.200,326.528 79.200 C 325.949 79.200,324.608 77.956,324.049 76.900 C 323.786 76.405,323.362 76.000,323.106 76.000 C 322.850 76.000,321.348 74.695,319.769 73.100 C 316.540 69.841,314.508 68.000,314.136 68.000 C 313.999 68.000,313.327 67.467,312.643 66.815 C 310.330 64.611,309.601 64.000,309.282 64.000 C 309.108 64.000,308.163 63.287,307.182 62.416 C 304.568 60.093,304.341 59.913,302.387 58.601 C 301.404 57.942,300.510 57.302,300.400 57.180 C 300.290 57.059,298.760 56.019,297.000 54.871 C 295.240 53.723,293.448 52.518,293.019 52.192 C 292.589 51.866,292.004 51.600,291.719 51.600 C 291.433 51.600,291.200 51.442,291.200 51.249 C 291.200 51.055,290.660 50.673,290.000 50.400 C 289.340 50.127,288.800 49.762,288.800 49.591 C 288.800 49.419,288.260 49.090,287.600 48.860 C 286.940 48.630,286.400 48.252,286.400 48.021 C 286.400 47.789,286.264 47.645,286.098 47.700 C 285.644 47.850,281.048 45.475,280.680 44.900 C 280.504 44.625,279.947 44.400,279.441 44.400 C 278.936 44.400,278.107 44.040,277.600 43.600 C 277.093 43.160,276.480 42.800,276.239 42.801 C 275.680 42.803,272.382 41.149,271.714 40.533 C 271.436 40.276,270.624 39.937,269.910 39.780 C 269.196 39.623,268.249 39.263,267.806 38.980 C 267.363 38.697,266.235 38.264,265.300 38.017 C 264.365 37.771,263.600 37.388,263.600 37.167 C 263.600 36.946,263.375 36.802,263.100 36.848 C 262.281 36.983,260.400 36.343,260.400 35.930 C 260.400 35.719,260.040 35.660,259.600 35.800 C 259.160 35.940,258.800 35.883,258.800 35.674 C 258.800 35.260,257.306 34.676,256.500 34.774 C 256.225 34.808,256.000 34.647,256.000 34.418 C 256.000 34.188,255.865 34.030,255.700 34.067 C 255.132 34.195,252.400 33.511,252.400 33.241 C 252.400 33.093,252.085 32.949,251.700 32.922 C 250.702 32.851,247.515 32.006,246.776 31.617 C 246.433 31.436,245.083 31.078,243.776 30.821 C 242.469 30.563,241.130 30.241,240.800 30.105 C 239.920 29.741,239.216 29.596,237.100 29.345 C 236.055 29.221,235.200 28.996,235.200 28.846 C 235.200 28.696,234.615 28.582,233.900 28.594 C 233.185 28.606,232.396 28.472,232.146 28.297 C 231.896 28.122,230.501 27.867,229.046 27.731 C 227.591 27.596,226.400 27.357,226.400 27.202 C 226.400 27.047,225.635 26.917,224.700 26.913 C 223.765 26.909,221.470 26.703,219.600 26.456 C 217.730 26.208,215.075 26.005,213.700 26.003 C 212.325 26.001,211.200 25.849,211.200 25.665 C 211.200 25.240,189.211 25.258,188.948 25.684 " stroke="none" fill="#fcac6c" fill-rule="evenodd"></path></g></svg>